<svg width="782" height="102" viewBox="0 0 782 102" fill="none" xmlns="http://www.w3.org/2000/svg">
<path d="M10.8756 52.08L0.315625 41.52L10.8756 30.96L21.4356 41.52L10.8756 52.08ZM10.8756 80.88L0.315625 70.32L10.8756 59.76L21.4356 70.32L10.8756 80.88ZM57.0816 91.44V81.84H53.2416C52.0896 81.84 51.1616 81.424 50.4576 80.592C49.7536 79.76 49.4016 77.936 49.4016 75.12V56.016C49.4016 53.136 48.9536 50.96 48.0576 49.488C47.2256 47.952 46.3936 46.928 45.5616 46.416C44.7296 45.84 44.3136 45.552 44.3136 45.552V45.36C44.3136 45.36 44.7296 45.072 45.5616 44.496C46.3936 43.856 47.2256 42.704 48.0576 41.04C48.9536 39.376 49.4016 37.008 49.4016 33.936V16.656C49.4016 13.776 49.7536 11.952 50.4576 11.184C51.2256 10.352 52.1536 9.936 53.2416 9.936H57.0816V0.335999H49.4976C45.4656 0.335999 42.2016 1.392 39.7056 3.504C37.2736 5.552 36.0576 8.688 36.0576 12.912V32.688C36.0576 35.12 35.6736 36.976 34.9056 38.256C34.2016 39.472 33.3056 40.304 32.2176 40.752C31.1296 41.136 30.1056 41.328 29.1456 41.328V50.064C30.1056 50.064 31.1296 50.224 32.2176 50.544C33.3056 50.864 34.2016 51.568 34.9056 52.656C35.6736 53.744 36.0576 55.44 36.0576 57.744V78.96C36.0576 83.12 37.2736 86.224 39.7056 88.272C42.2016 90.384 45.4656 91.44 49.4976 91.44H57.0816ZM112.744 78.96C109.224 78.96 105.896 78.64 102.76 78C99.6244 77.296 96.9044 76.464 94.6004 75.504C92.2964 74.544 90.6004 73.648 89.5124 72.816V55.632C92.5844 57.36 96.4564 58.992 101.128 60.528C105.8 62 110.984 62.736 116.68 62.736C118.984 62.736 120.68 62.448 121.768 61.872C122.92 61.232 123.496 60.144 123.496 58.608C123.496 56.944 122.216 55.568 119.656 54.48C117.16 53.328 113.192 51.92 107.752 50.256C103.528 48.912 99.9124 47.44 96.9044 45.84C93.9604 44.176 91.6884 42.128 90.0884 39.696C88.5524 37.2 87.7844 34.032 87.7844 30.192C87.7844 26.224 88.8084 22.64 90.8564 19.44C92.9044 16.24 96.1044 13.712 100.456 11.856C104.808 10 110.376 9.07199 117.16 9.07199C119.208 9.07199 121.384 9.168 123.688 9.36C126.056 9.488 127.944 9.67999 129.352 9.936L140.2 17.904L136.456 29.616L113.704 23.376C111.08 23.376 109.128 23.92 107.848 25.008C106.632 26.096 106.024 27.408 106.024 28.944C106.024 30.8 107.08 32.272 109.192 33.36C111.304 34.448 114.344 35.536 118.312 36.624C124.584 38.352 129.448 40.272 132.904 42.384C136.36 44.496 138.792 46.896 140.2 49.584C141.608 52.208 142.312 55.184 142.312 58.512C142.312 64.656 139.848 69.616 134.92 73.392C129.992 77.104 122.6 78.96 112.744 78.96ZM164.412 78.96C160.572 78.96 157.596 78.224 155.484 76.752C153.436 75.28 151.996 73.168 151.164 70.416C150.396 67.6 150.012 64.24 150.012 60.336V32.592H167.292V57.84C167.292 60.208 167.74 62.064 168.636 63.408C169.596 64.752 171.004 65.424 172.86 65.424C174.588 65.424 176.156 64.688 177.564 63.216C179.036 61.744 179.772 59.6 179.772 56.784V32.592H197.052V62.544L199.068 72.144L197.052 78H180.828V73.296L179.868 72.816C179.036 73.648 177.82 74.544 176.22 75.504C174.684 76.464 172.892 77.296 170.844 78C168.86 78.64 166.716 78.96 164.412 78.96ZM208.372 78V47.952L206.356 38.352L208.372 32.592H221.428L223.348 34.8C223.348 34.8 223.796 34.544 224.692 34.032C225.588 33.456 226.836 32.912 228.436 32.4C230.1 31.888 232.02 31.632 234.196 31.632C235.476 31.632 236.756 31.728 238.036 31.92C239.316 32.112 240.308 32.368 241.012 32.688L247.252 37.968L241.012 50.256L228.34 44.976L225.46 45.936V78H208.372ZM262.21 78L250.114 45.168L248.194 32.688H266.434L271.714 62.64H273.634L279.01 32.688H297.154L295.234 45.168L282.37 78H262.21ZM324.106 78.96C319.178 78.96 314.794 78.224 310.954 76.752C307.114 75.28 304.106 72.816 301.93 69.36C299.754 65.904 298.666 61.232 298.666 55.344C298.666 51.12 299.37 47.504 300.778 44.496C302.25 41.488 304.202 39.056 306.634 37.2C309.066 35.28 311.786 33.904 314.794 33.072C317.802 32.176 320.906 31.728 324.106 31.728C329.61 31.728 333.834 32.272 336.778 33.36C339.786 34.448 341.77 35.312 342.73 35.952L347.53 51.216L345.61 57.168H315.85C316.298 59.536 317.482 61.52 319.402 63.12C321.322 64.72 324.49 65.52 328.906 65.52C332.362 65.52 335.338 65.136 337.834 64.368C340.33 63.6 342.282 62.928 343.69 62.352V75.216C341.77 76.24 338.986 77.136 335.338 77.904C331.754 78.608 328.01 78.96 324.106 78.96ZM315.946 51.024L329.194 49.104L328.33 44.976C327.882 44.72 327.21 44.528 326.314 44.4C325.482 44.272 324.746 44.208 324.106 44.208C322.314 44.208 320.81 44.592 319.594 45.36C318.442 46.128 317.546 47.056 316.906 48.144C316.33 49.168 316.01 50.128 315.946 51.024ZM359.493 101.328L345.957 96.528L349.797 82.224L363.237 86.064C365.989 86.064 367.973 85.328 369.189 83.856C370.469 82.448 371.429 80.464 372.069 77.904H362.181L351.621 45.072L349.797 32.592H368.037L373.317 64.272H375.237L380.517 32.592H398.757C398.757 32.592 398.533 33.616 398.085 35.664C397.701 37.648 397.125 40.304 396.357 43.632C395.653 46.96 394.789 50.64 393.765 54.672C392.805 58.64 391.781 62.672 390.693 66.768C389.605 70.8 388.485 74.512 387.333 77.904C385.605 83.216 383.525 87.6 381.093 91.056C378.725 94.512 375.813 97.072 372.357 98.736C368.901 100.464 364.613 101.328 359.493 101.328ZM430.414 78V25.488L428.494 15.888L430.414 10.032H459.022C463.63 10.032 468.046 10.48 472.27 11.376C476.558 12.208 480.366 13.808 483.694 16.176C487.086 18.544 489.742 21.936 491.662 26.352C493.646 30.768 494.638 36.496 494.638 43.536C494.638 50.576 493.646 56.368 491.662 60.912C489.678 65.392 486.99 68.88 483.598 71.376C480.206 73.872 476.366 75.6 472.078 76.56C467.854 77.52 463.502 78 459.022 78H430.414ZM447.886 62.64H459.022C464.654 62.64 468.974 61.168 471.982 58.224C474.99 55.216 476.494 50.32 476.494 43.536C476.494 36.752 474.958 32.048 471.886 29.424C468.878 26.736 464.59 25.392 459.022 25.392H447.886V62.64ZM516.724 78.96C512.884 78.96 509.908 78.224 507.796 76.752C505.748 75.28 504.308 73.168 503.476 70.416C502.708 67.6 502.324 64.24 502.324 60.336V32.592H519.604V57.84C519.604 60.208 520.052 62.064 520.948 63.408C521.908 64.752 523.316 65.424 525.172 65.424C526.9 65.424 528.468 64.688 529.876 63.216C531.348 61.744 532.084 59.6 532.084 56.784V32.592H549.364V62.544L551.38 72.144L549.364 78H533.14V73.296L532.18 72.816C531.348 73.648 530.132 74.544 528.532 75.504C526.996 76.464 525.204 77.296 523.156 78C521.172 78.64 519.028 78.96 516.724 78.96ZM558.668 38.544L561.644 32.688H575.948V36.816L576.812 37.392C577.516 36.752 578.476 36.016 579.692 35.184C580.972 34.288 582.508 33.488 584.3 32.784C586.092 32.08 588.108 31.728 590.348 31.728C597.004 31.728 601.772 33.936 604.652 38.352C605.804 36.752 607.532 35.248 609.836 33.84C612.204 32.368 615.468 31.632 619.628 31.632C625.388 31.632 629.708 33.264 632.588 36.528C635.468 39.792 636.908 44.368 636.908 50.256V62.544L638.924 72.144L636.908 78H619.628V52.752C619.628 50.32 619.084 48.464 617.996 47.184C616.972 45.84 615.34 45.168 613.1 45.168C611.628 45.168 610.348 45.712 609.26 46.8C608.172 47.888 607.628 49.264 607.628 50.928V78H590.348V52.848C590.348 50.416 589.804 48.56 588.716 47.28C587.692 45.936 586.06 45.264 583.82 45.264L577.868 47.088V78H560.588V49.104L558.668 38.544ZM648.526 101.328V49.008L646.606 38.448L649.582 32.592H663.886V36.72L664.846 37.2C664.846 37.2 665.422 36.72 666.574 35.76C667.726 34.8 669.294 33.872 671.278 32.976C673.326 32.016 675.694 31.536 678.382 31.536C684.078 31.536 688.526 33.36 691.726 37.008C694.99 40.656 696.622 46.416 696.622 54.288C696.622 60.176 695.79 64.944 694.126 68.592C692.526 72.176 690.35 74.768 687.598 76.368C684.846 77.968 681.774 78.768 678.382 78.768C673.774 78.768 670.51 78.416 668.59 77.712C666.734 76.944 665.806 76.56 665.806 76.56V101.328H648.526ZM670.222 65.616C672.654 65.616 674.606 64.752 676.078 63.024C677.614 61.296 678.382 58.672 678.382 55.152C678.382 51.696 677.774 49.168 676.558 47.568C675.342 45.968 673.55 45.168 671.182 45.168L665.806 47.184V64.368C665.806 64.368 666.126 64.592 666.766 65.04C667.47 65.424 668.622 65.616 670.222 65.616ZM724.958 91.44V81.84H728.798C729.95 81.84 730.878 81.424 731.582 80.592C732.286 79.76 732.638 77.936 732.638 75.12V56.016C732.638 53.136 733.054 50.96 733.886 49.488C734.782 47.952 735.646 46.928 736.478 46.416C737.31 45.84 737.726 45.552 737.726 45.552V45.36C737.726 45.36 737.31 45.072 736.478 44.496C735.646 43.856 734.782 42.704 733.886 41.04C733.054 39.376 732.638 37.008 732.638 33.936V16.656C732.638 13.776 732.254 11.952 731.486 11.184C730.782 10.352 729.886 9.936 728.798 9.936H724.958V0.335999H732.542C736.574 0.335999 739.806 1.392 742.238 3.504C744.734 5.552 745.982 8.688 745.982 12.912V32.688C745.982 35.12 746.334 36.976 747.038 38.256C747.806 39.472 748.734 40.304 749.822 40.752C750.91 41.136 751.934 41.328 752.894 41.328V50.064C751.934 50.064 750.91 50.224 749.822 50.544C748.734 50.864 747.806 51.568 747.038 52.656C746.334 53.744 745.982 55.44 745.982 57.744V78.96C745.982 83.12 744.734 86.224 742.238 88.272C739.806 90.384 736.574 91.44 732.542 91.44H724.958ZM771.094 52.08L760.534 41.52L771.094 30.96L781.654 41.52L771.094 52.08ZM771.094 80.88L760.534 70.32L771.094 59.76L781.654 70.32L771.094 80.88Z" fill="#2563EB"/>
</svg>
