<svg width="229" height="92" viewBox="0 0 229 92" fill="none" xmlns="http://www.w3.org/2000/svg">
<path d="M10.7975 52.08L0.2375 41.52L10.7975 30.96L21.3575 41.52L10.7975 52.08ZM10.7975 80.88L0.2375 70.32L10.7975 59.76L21.3575 70.32L10.7975 80.88ZM57.0035 91.44V81.84H53.1635C52.0115 81.84 51.0835 81.424 50.3795 80.592C49.6755 79.76 49.3235 77.936 49.3235 75.12V56.016C49.3235 53.136 48.8755 50.96 47.9795 49.488C47.1475 47.952 46.3155 46.928 45.4835 46.416C44.6515 45.84 44.2355 45.552 44.2355 45.552V45.36C44.2355 45.36 44.6515 45.072 45.4835 44.496C46.3155 43.856 47.1475 42.704 47.9795 41.04C48.8755 39.376 49.3235 37.008 49.3235 33.936V16.656C49.3235 13.776 49.6755 11.952 50.3795 11.184C51.1475 10.352 52.0755 9.936 53.1635 9.936H57.0035V0.335999H49.4195C45.3875 0.335999 42.1235 1.392 39.6275 3.504C37.1955 5.552 35.9795 8.688 35.9795 12.912V32.688C35.9795 35.12 35.5955 36.976 34.8275 38.256C34.1235 39.472 33.2275 40.304 32.1395 40.752C31.0515 41.136 30.0275 41.328 29.0675 41.328V50.064C30.0275 50.064 31.0515 50.224 32.1395 50.544C33.2275 50.864 34.1235 51.568 34.8275 52.656C35.5955 53.744 35.9795 55.44 35.9795 57.744V78.96C35.9795 83.12 37.1955 86.224 39.6275 88.272C42.1235 90.384 45.3875 91.44 49.4195 91.44H57.0035ZM112.666 78.96C109.146 78.96 105.818 78.64 102.682 78C99.5463 77.296 96.8263 76.464 94.5223 75.504C92.2183 74.544 90.5223 73.648 89.4343 72.816V55.632C92.5063 57.36 96.3783 58.992 101.05 60.528C105.722 62 110.906 62.736 116.602 62.736C118.906 62.736 120.602 62.448 121.69 61.872C122.842 61.232 123.418 60.144 123.418 58.608C123.418 56.944 122.138 55.568 119.578 54.48C117.082 53.328 113.114 51.92 107.674 50.256C103.45 48.912 99.8343 47.44 96.8263 45.84C93.8823 44.176 91.6103 42.128 90.0103 39.696C88.4743 37.2 87.7063 34.032 87.7063 30.192C87.7063 26.224 88.7303 22.64 90.7783 19.44C92.8263 16.24 96.0263 13.712 100.378 11.856C104.73 10 110.298 9.07199 117.082 9.07199C119.13 9.07199 121.306 9.168 123.61 9.36C125.978 9.488 127.866 9.67999 129.274 9.936L140.122 17.904L136.378 29.616L113.626 23.376C111.002 23.376 109.05 23.92 107.77 25.008C106.554 26.096 105.946 27.408 105.946 28.944C105.946 30.8 107.002 32.272 109.114 33.36C111.226 34.448 114.266 35.536 118.234 36.624C124.506 38.352 129.37 40.272 132.826 42.384C136.282 44.496 138.714 46.896 140.122 49.584C141.53 52.208 142.234 55.184 142.234 58.512C142.234 64.656 139.77 69.616 134.842 73.392C129.914 77.104 122.522 78.96 112.666 78.96ZM172.036 91.44V81.84H175.876C177.028 81.84 177.956 81.424 178.66 80.592C179.364 79.76 179.716 77.936 179.716 75.12V56.016C179.716 53.136 180.132 50.96 180.964 49.488C181.86 47.952 182.724 46.928 183.556 46.416C184.388 45.84 184.804 45.552 184.804 45.552V45.36C184.804 45.36 184.388 45.072 183.556 44.496C182.724 43.856 181.86 42.704 180.964 41.04C180.132 39.376 179.716 37.008 179.716 33.936V16.656C179.716 13.776 179.332 11.952 178.564 11.184C177.86 10.352 176.964 9.936 175.876 9.936H172.036V0.335999H179.62C183.652 0.335999 186.884 1.392 189.316 3.504C191.812 5.552 193.06 8.688 193.06 12.912V32.688C193.06 35.12 193.412 36.976 194.116 38.256C194.884 39.472 195.812 40.304 196.9 40.752C197.988 41.136 199.012 41.328 199.972 41.328V50.064C199.012 50.064 197.988 50.224 196.9 50.544C195.812 50.864 194.884 51.568 194.116 52.656C193.412 53.744 193.06 55.44 193.06 57.744V78.96C193.06 83.12 191.812 86.224 189.316 88.272C186.884 90.384 183.652 91.44 179.62 91.44H172.036ZM218.173 52.08L207.613 41.52L218.173 30.96L228.733 41.52L218.173 52.08ZM218.173 80.88L207.613 70.32L218.173 59.76L228.733 70.32L218.173 80.88Z" fill="white"/>
</svg>
